<!--?xml version="1.0" encoding="us-ascii" standalone="no"?--><svg xmlns="http://www.w3.org/2000/svg" xmlns:xlink="http://www.w3.org/1999/xlink" contentStyleType="text/css" height="221px" preserveAspectRatio="none" style="width:2135px;height:221px;background:#FFFFFF;" version="1.1" viewBox="0 0 2135 221" width="2135px" zoomAndPan="magnify"><defs></defs><g><!--class mountains--><g id="elem_mountains"><rect codeline="1" fill="#F1F1F1" height="129.4844" id="mountains" rx="2.5" ry="2.5" style="stroke:#181818;stroke-width:0.5;" width="142" x="7" y="84.99"></rect><ellipse cx="39.1" cy="100.99" fill="#ADD1B2" rx="11" ry="11" style="stroke:#181818;stroke-width:1.0;"></ellipse><path d="M43.2094,106.99 L35.4906,106.99 L35.4906,94.5994 L43.2094,94.5994 L43.2094,96.7556 L37.9438,96.7556 L37.9438,99.4275 L42.7094,99.4275 L42.7094,101.5838 L37.9438,101.5838 L37.9438,104.8338 L43.2094,104.8338 L43.2094,106.99 Z " fill="#000000"></path><text fill="#000000" font-family="sans-serif" font-size="14" lengthAdjust="spacing" textLength="72" x="56.9" y="105.8367">Mountains</text><line style="stroke:#181818;stroke-width:0.5;" x1="8" x2="148" y1="116.99" y2="116.99"></line><ellipse cx="18" cy="130.6384" fill="none" rx="3" ry="3" style="stroke:#038048;stroke-width:1.0;"></ellipse><text fill="#000000" font-family="sans-serif" font-size="14" lengthAdjust="spacing" textLength="116" x="27" y="133.9851">mountain_id [PK]</text><line style="stroke:#181818;stroke-width:1.0;" x1="8" x2="148" y1="141.2869" y2="141.2869"></line><text fill="#000000" font-family="sans-serif" font-size="14" lengthAdjust="spacing" textLength="111" x="13" y="158.282">mountain_name</text><text fill="#000000" font-family="sans-serif" font-size="14" lengthAdjust="spacing" textLength="116" x="13" y="174.5789">mountain_height</text><text fill="#000000" font-family="sans-serif" font-size="14" lengthAdjust="spacing" textLength="52" x="13" y="190.8757">country</text><text fill="#000000" font-family="sans-serif" font-size="14" lengthAdjust="spacing" textLength="30" x="13" y="207.1726">area</text></g><!--class climbers--><g id="elem_climbers"><rect codeline="10" fill="#F1F1F1" height="96.8906" id="climbers" rx="2.5" ry="2.5" style="stroke:#181818;stroke-width:0.5;" width="127" x="422.5" y="101.28"></rect><ellipse cx="453.25" cy="117.28" fill="#ADD1B2" rx="11" ry="11" style="stroke:#181818;stroke-width:1.0;"></ellipse><path d="M457.3594,123.28 L449.6406,123.28 L449.6406,110.8894 L457.3594,110.8894 L457.3594,113.0456 L452.0938,113.0456 L452.0938,115.7175 L456.8594,115.7175 L456.8594,117.8738 L452.0938,117.8738 L452.0938,121.1238 L457.3594,121.1238 L457.3594,123.28 Z " fill="#000000"></path><text fill="#000000" font-family="sans-serif" font-size="14" lengthAdjust="spacing" textLength="60" x="470.75" y="122.1267">Climbers</text><line style="stroke:#181818;stroke-width:0.5;" x1="423.5" x2="548.5" y1="133.28" y2="133.28"></line><ellipse cx="433.5" cy="146.9284" fill="none" rx="3" ry="3" style="stroke:#038048;stroke-width:1.0;"></ellipse><text fill="#000000" font-family="sans-serif" font-size="14" lengthAdjust="spacing" textLength="101" x="442.5" y="150.2751">climber_id [PK]</text><line style="stroke:#181818;stroke-width:1.0;" x1="423.5" x2="548.5" y1="157.5769" y2="157.5769"></line><text fill="#000000" font-family="sans-serif" font-size="14" lengthAdjust="spacing" textLength="96" x="428.5" y="174.572">climber_name</text><text fill="#000000" font-family="sans-serif" font-size="14" lengthAdjust="spacing" textLength="56" x="428.5" y="190.8689">address</text></g><!--class climbs--><g id="elem_climbs"><rect codeline="17" fill="#F1F1F1" height="96.8906" id="climbs" rx="2.5" ry="2.5" style="stroke:#181818;stroke-width:0.5;" width="124" x="264" y="101.28"></rect><ellipse cx="299.7" cy="117.28" fill="#ADD1B2" rx="11" ry="11" style="stroke:#181818;stroke-width:1.0;"></ellipse><path d="M303.8094,123.28 L296.0906,123.28 L296.0906,110.8894 L303.8094,110.8894 L303.8094,113.0456 L298.5438,113.0456 L298.5438,115.7175 L303.3094,115.7175 L303.3094,117.8738 L298.5438,117.8738 L298.5438,121.1238 L303.8094,121.1238 L303.8094,123.28 Z " fill="#000000"></path><text fill="#000000" font-family="sans-serif" font-size="14" lengthAdjust="spacing" textLength="46" x="318.3" y="122.1267">Climbs</text><line style="stroke:#181818;stroke-width:0.5;" x1="265" x2="387" y1="133.28" y2="133.28"></line><ellipse cx="275" cy="146.9284" fill="none" rx="3" ry="3" style="stroke:#038048;stroke-width:1.0;"></ellipse><text fill="#000000" font-family="sans-serif" font-size="14" lengthAdjust="spacing" textLength="87" x="284" y="150.2751">climb_id [PK]</text><line style="stroke:#181818;stroke-width:1.0;" x1="265" x2="387" y1="157.5769" y2="157.5769"></line><text fill="#000000" font-family="sans-serif" font-size="14" lengthAdjust="spacing" textLength="112" x="270" y="174.572">climb_start_date</text><text fill="#000000" font-family="sans-serif" font-size="14" lengthAdjust="spacing" textLength="108" x="270" y="190.8689">climb_end_date</text></g><!--class climber_climb--><g id="elem_climber_climb"><rect codeline="24" fill="#F1F1F1" height="80.5938" id="climber_climb" rx="2.5" ry="2.5" style="stroke:#181818;stroke-width:0.5;" width="129" x="734.5" y="109.43"></rect><ellipse cx="749.5" cy="125.43" fill="#ADD1B2" rx="11" ry="11" style="stroke:#181818;stroke-width:1.0;"></ellipse><path d="M753.6094,131.43 L745.8906,131.43 L745.8906,119.0394 L753.6094,119.0394 L753.6094,121.1956 L748.3438,121.1956 L748.3438,123.8675 L753.1094,123.8675 L753.1094,126.0237 L748.3438,126.0237 L748.3438,129.2737 L753.6094,129.2737 L753.6094,131.43 Z " fill="#000000"></path><text fill="#000000" font-family="sans-serif" font-size="14" lengthAdjust="spacing" textLength="97" x="763.5" y="130.2767">Climber_Climb</text><line style="stroke:#181818;stroke-width:0.5;" x1="735.5" x2="862.5" y1="141.43" y2="141.43"></line><line style="stroke:#181818;stroke-width:1.0;" x1="735.5" x2="862.5" y1="149.43" y2="149.43"></line><text fill="#000000" font-family="sans-serif" font-size="14" lengthAdjust="spacing" textLength="100" x="740.5" y="166.4251">climber_id [FK]</text><text fill="#000000" font-family="sans-serif" font-size="14" lengthAdjust="spacing" textLength="86" x="740.5" y="182.722">climb_id [FK]</text></g><!--class groups--><g id="elem_groups"><rect codeline="30" fill="#F1F1F1" height="80.5938" id="groups" rx="2.5" ry="2.5" style="stroke:#181818;stroke-width:0.5;" width="118" x="899" y="109.43"></rect><ellipse cx="929.75" cy="125.43" fill="#ADD1B2" rx="11" ry="11" style="stroke:#181818;stroke-width:1.0;"></ellipse><path d="M933.8594,131.43 L926.1406,131.43 L926.1406,119.0394 L933.8594,119.0394 L933.8594,121.1956 L928.5938,121.1956 L928.5938,123.8675 L933.3594,123.8675 L933.3594,126.0237 L928.5938,126.0237 L928.5938,129.2737 L933.8594,129.2737 L933.8594,131.43 Z " fill="#000000"></path><text fill="#000000" font-family="sans-serif" font-size="14" lengthAdjust="spacing" textLength="51" x="947.25" y="130.2767">Groups</text><line style="stroke:#181818;stroke-width:0.5;" x1="900" x2="1016" y1="141.43" y2="141.43"></line><ellipse cx="910" cy="155.0784" fill="none" rx="3" ry="3" style="stroke:#038048;stroke-width:1.0;"></ellipse><text fill="#000000" font-family="sans-serif" font-size="14" lengthAdjust="spacing" textLength="92" x="919" y="158.4251">group_id [PK]</text><line style="stroke:#181818;stroke-width:1.0;" x1="900" x2="1016" y1="165.7269" y2="165.7269"></line><text fill="#000000" font-family="sans-serif" font-size="14" lengthAdjust="spacing" textLength="87" x="905" y="182.722">group_name</text></g><!--class group_members--><g id="elem_group_members"><rect codeline="36" fill="#F1F1F1" height="80.5938" id="group_members" rx="2.5" ry="2.5" style="stroke:#181818;stroke-width:0.5;" width="147" x="1108.5" y="109.43"></rect><ellipse cx="1123.5" cy="125.43" fill="#ADD1B2" rx="11" ry="11" style="stroke:#181818;stroke-width:1.0;"></ellipse><path d="M1127.6094,131.43 L1119.8906,131.43 L1119.8906,119.0394 L1127.6094,119.0394 L1127.6094,121.1956 L1122.3438,121.1956 L1122.3438,123.8675 L1127.1094,123.8675 L1127.1094,126.0237 L1122.3438,126.0237 L1122.3438,129.2737 L1127.6094,129.2737 L1127.6094,131.43 Z " fill="#000000"></path><text fill="#000000" font-family="sans-serif" font-size="14" lengthAdjust="spacing" textLength="115" x="1137.5" y="130.2767">Group_Members</text><line style="stroke:#181818;stroke-width:0.5;" x1="1109.5" x2="1254.5" y1="141.43" y2="141.43"></line><line style="stroke:#181818;stroke-width:1.0;" x1="1109.5" x2="1254.5" y1="149.43" y2="149.43"></line><text fill="#000000" font-family="sans-serif" font-size="14" lengthAdjust="spacing" textLength="91" x="1114.5" y="166.4251">group_id [FK]</text><text fill="#000000" font-family="sans-serif" font-size="14" lengthAdjust="spacing" textLength="100" x="1114.5" y="182.722">climber_id [FK]</text></g><!--class equipment--><g id="elem_equipment"><rect codeline="42" fill="#F1F1F1" height="80.5938" id="equipment" rx="2.5" ry="2.5" style="stroke:#181818;stroke-width:0.5;" width="152" x="1291" y="109.43"></rect><ellipse cx="1326.25" cy="125.43" fill="#ADD1B2" rx="11" ry="11" style="stroke:#181818;stroke-width:1.0;"></ellipse><path d="M1330.3594,131.43 L1322.6406,131.43 L1322.6406,119.0394 L1330.3594,119.0394 L1330.3594,121.1956 L1325.0938,121.1956 L1325.0938,123.8675 L1329.8594,123.8675 L1329.8594,126.0237 L1325.0938,126.0237 L1325.0938,129.2737 L1330.3594,129.2737 L1330.3594,131.43 Z " fill="#000000"></path><text fill="#000000" font-family="sans-serif" font-size="14" lengthAdjust="spacing" textLength="75" x="1344.75" y="130.2767">Equipment</text><line style="stroke:#181818;stroke-width:0.5;" x1="1292" x2="1442" y1="141.43" y2="141.43"></line><ellipse cx="1302" cy="155.0784" fill="none" rx="3" ry="3" style="stroke:#038048;stroke-width:1.0;"></ellipse><text fill="#000000" font-family="sans-serif" font-size="14" lengthAdjust="spacing" textLength="126" x="1311" y="158.4251">equipment_id [PK]</text><line style="stroke:#181818;stroke-width:1.0;" x1="1292" x2="1442" y1="165.7269" y2="165.7269"></line><text fill="#000000" font-family="sans-serif" font-size="14" lengthAdjust="spacing" textLength="121" x="1297" y="182.722">equipment_name</text></g><!--class gear_rental--><g id="elem_gear_rental"><rect codeline="48" fill="#F1F1F1" height="96.8906" id="gear_rental" rx="2.5" ry="2.5" style="stroke:#181818;stroke-width:0.5;" width="154" x="1567" y="101.28"></rect><ellipse cx="1599.1" cy="117.28" fill="#ADD1B2" rx="11" ry="11" style="stroke:#181818;stroke-width:1.0;"></ellipse><path d="M1603.2094,123.28 L1595.4906,123.28 L1595.4906,110.8894 L1603.2094,110.8894 L1603.2094,113.0456 L1597.9438,113.0456 L1597.9438,115.7175 L1602.7094,115.7175 L1602.7094,117.8738 L1597.9438,117.8738 L1597.9438,121.1238 L1603.2094,121.1238 L1603.2094,123.28 Z " fill="#000000"></path><text fill="#000000" font-family="sans-serif" font-size="14" lengthAdjust="spacing" textLength="84" x="1616.9" y="122.1267">Gear_Rental</text><line style="stroke:#181818;stroke-width:0.5;" x1="1568" x2="1720" y1="133.28" y2="133.28"></line><ellipse cx="1578" cy="146.9284" fill="none" rx="3" ry="3" style="stroke:#038048;stroke-width:1.0;"></ellipse><text fill="#000000" font-family="sans-serif" font-size="14" lengthAdjust="spacing" textLength="128" x="1587" y="150.2751">gear_rental_id [PK]</text><line style="stroke:#181818;stroke-width:1.0;" x1="1568" x2="1720" y1="157.5769" y2="157.5769"></line><text fill="#000000" font-family="sans-serif" font-size="14" lengthAdjust="spacing" textLength="86" x="1573" y="174.572">climb_id [FK]</text><text fill="#000000" font-family="sans-serif" font-size="14" lengthAdjust="spacing" textLength="125" x="1573" y="190.8689">equipment_id [FK]</text></g><!--class difficulty_level--><g id="elem_difficulty_level"><rect codeline="55" fill="#F1F1F1" height="80.5938" id="difficulty_level" rx="2.5" ry="2.5" style="stroke:#181818;stroke-width:0.5;" width="132" x="1756" y="109.43"></rect><ellipse cx="1771.45" cy="125.43" fill="#ADD1B2" rx="11" ry="11" style="stroke:#181818;stroke-width:1.0;"></ellipse><path d="M1775.5594,131.43 L1767.8406,131.43 L1767.8406,119.0394 L1775.5594,119.0394 L1775.5594,121.1956 L1770.2938,121.1956 L1770.2938,123.8675 L1775.0594,123.8675 L1775.0594,126.0237 L1770.2938,126.0237 L1770.2938,129.2737 L1775.5594,129.2737 L1775.5594,131.43 Z " fill="#000000"></path><text fill="#000000" font-family="sans-serif" font-size="14" lengthAdjust="spacing" textLength="99" x="1785.55" y="130.2767">Difficulty_Level</text><line style="stroke:#181818;stroke-width:0.5;" x1="1757" x2="1887" y1="141.43" y2="141.43"></line><ellipse cx="1767" cy="155.0784" fill="none" rx="3" ry="3" style="stroke:#038048;stroke-width:1.0;"></ellipse><text fill="#000000" font-family="sans-serif" font-size="14" lengthAdjust="spacing" textLength="106" x="1776" y="158.4251">difficulty_id [PK]</text><line style="stroke:#181818;stroke-width:1.0;" x1="1757" x2="1887" y1="165.7269" y2="165.7269"></line><text fill="#000000" font-family="sans-serif" font-size="14" lengthAdjust="spacing" textLength="77" x="1762" y="182.722">description</text></g><!--class climb_difficulty--><g id="elem_climb_difficulty"><rect codeline="61" fill="#F1F1F1" height="80.5938" id="climb_difficulty" rx="2.5" ry="2.5" style="stroke:#181818;stroke-width:0.5;" width="134" x="1994" y="109.43"></rect><ellipse cx="2009" cy="125.43" fill="#ADD1B2" rx="11" ry="11" style="stroke:#181818;stroke-width:1.0;"></ellipse><path d="M2013.1094,131.43 L2005.3906,131.43 L2005.3906,119.0394 L2013.1094,119.0394 L2013.1094,121.1956 L2007.8438,121.1956 L2007.8438,123.8675 L2012.6094,123.8675 L2012.6094,126.0237 L2007.8438,126.0237 L2007.8438,129.2737 L2013.1094,129.2737 L2013.1094,131.43 Z " fill="#000000"></path><text fill="#000000" font-family="sans-serif" font-size="14" lengthAdjust="spacing" textLength="102" x="2023" y="130.2767">Climb_Difficulty</text><line style="stroke:#181818;stroke-width:0.5;" x1="1995" x2="2127" y1="141.43" y2="141.43"></line><line style="stroke:#181818;stroke-width:1.0;" x1="1995" x2="2127" y1="149.43" y2="149.43"></line><text fill="#000000" font-family="sans-serif" font-size="14" lengthAdjust="spacing" textLength="86" x="2000" y="166.4251">climb_id [FK]</text><text fill="#000000" font-family="sans-serif" font-size="14" lengthAdjust="spacing" textLength="105" x="2000" y="182.722">difficulty_id [FK]</text></g><!--link mountains to climbs--><g id="link_mountains_climbs"><path codeline="67" d="M157.98,149.73 C189.11,149.73 224.49,149.73 254.73,149.73 " fill="none" id="mountains-climbs" style="stroke:#181818;stroke-width:1.0;"></path><line style="stroke:#181818;stroke-width:1.0;" x1="154.4" x2="154.4" y1="153.73" y2="145.73"></line><line style="stroke:#181818;stroke-width:1.0;" x1="157.4" x2="157.4" y1="153.73" y2="145.73"></line><line style="stroke:#181818;stroke-width:1.0;" x1="158.4" x2="150.4" y1="149.73" y2="149.73"></line><line style="stroke:#181818;stroke-width:1.0;" x1="254.53" x2="262.53" y1="149.73" y2="143.73"></line><line style="stroke:#181818;stroke-width:1.0;" x1="254.53" x2="262.53" y1="149.73" y2="155.73"></line><line style="stroke:#181818;stroke-width:1.0;" x1="254.53" x2="262.53" y1="149.73" y2="149.73"></line><line style="stroke:#181818;stroke-width:1.0;" x1="252.53" x2="252.53" y1="145.73" y2="153.73"></line><text fill="#000000" font-family="sans-serif" font-size="13" lengthAdjust="spacing" textLength="79" x="167" y="142.7969">mountain_id</text></g><!--link climbers to climber_climb--><g id="link_climbers_climber_climb"><path codeline="68" d="M558.4,149.73 C608.43,149.73 674.79,149.73 725.14,149.73 " fill="none" id="climbers-climber_climb" style="stroke:#181818;stroke-width:1.0;"></path><line style="stroke:#181818;stroke-width:1.0;" x1="554.72" x2="554.72" y1="153.73" y2="145.73"></line><line style="stroke:#181818;stroke-width:1.0;" x1="557.72" x2="557.72" y1="153.73" y2="145.73"></line><line style="stroke:#181818;stroke-width:1.0;" x1="558.72" x2="550.72" y1="149.73" y2="149.73"></line><line style="stroke:#181818;stroke-width:1.0;" x1="725.03" x2="733.03" y1="149.73" y2="143.73"></line><line style="stroke:#181818;stroke-width:1.0;" x1="725.03" x2="733.03" y1="149.73" y2="155.73"></line><line style="stroke:#181818;stroke-width:1.0;" x1="725.03" x2="733.03" y1="149.73" y2="149.73"></line><line style="stroke:#181818;stroke-width:1.0;" x1="723.03" x2="723.03" y1="145.73" y2="153.73"></line><text fill="#000000" font-family="sans-serif" font-size="13" lengthAdjust="spacing" textLength="65" x="609.5" y="142.7969">climber_id</text></g><!--link climbs to climber_climb--><g id="link_climbs_climber_climb"><path codeline="69" d="M384.31,96.07 C390.96,91.78 397.91,87.96 405,84.99 C518.78,37.28 557.8,61.82 681,55.19 C704.97,53.9 713.8,43.94 735,55.19 C753.84,65.19 768.15,83.49 778.41,101.35 " fill="none" id="climbs-climber_climb" style="stroke:#181818;stroke-width:1.0;"></path><line style="stroke:#181818;stroke-width:1.0;" x1="383.7572" x2="379.2572" y1="101.9572" y2="95.3428"></line><line style="stroke:#181818;stroke-width:1.0;" x1="386.2376" x2="381.7375" y1="100.2696" y2="93.6553"></line><line style="stroke:#181818;stroke-width:1.0;" x1="384.8143" x2="378.2" y1="96.4" y2="100.9"></line><line style="stroke:#181818;stroke-width:1.0;" x1="778.7222" x2="787.8245" y1="100.9207" y2="105.0616"></line><line style="stroke:#181818;stroke-width:1.0;" x1="778.7222" x2="777.2955" y1="100.9207" y2="110.8184"></line><line style="stroke:#181818;stroke-width:1.0;" x1="778.7222" x2="782.56" y1="100.9207" y2="107.94"></line><line style="stroke:#181818;stroke-width:1.0;" x1="781.2724" x2="774.2531" y1="97.2469" y2="101.0847"></line><text fill="#000000" font-family="sans-serif" font-size="13" lengthAdjust="spacing" textLength="52" x="682" y="51.0569">climb_id</text></g><!--link climbers to group_members--><g id="link_climbers_group_members"><path codeline="70" d="M511.04,93.55 C520.75,78.35 533.46,63.74 549.5,55.19 C575.78,41.19 586.74,54.13 616.5,55.19 C802.85,61.82 854.01,40.12 1035,84.99 C1056.74,90.38 1079.32,98.76 1100.06,107.72 " fill="none" id="climbers-group_members" style="stroke:#181818;stroke-width:1.0;"></path><line style="stroke:#181818;stroke-width:1.0;" x1="512.0113" x2="505.1615" y1="98.6815" y2="94.5487"></line><line style="stroke:#181818;stroke-width:1.0;" x1="513.5611" x2="506.7113" y1="96.1128" y2="91.98"></line><line style="stroke:#181818;stroke-width:1.0;" x1="510.6528" x2="506.52" y1="93.1902" y2="100.04"></line><line style="stroke:#181818;stroke-width:1.0;" x1="1099.8937" x2="1109.63" y1="108.1067" y2="105.8253"></line><line style="stroke:#181818;stroke-width:1.0;" x1="1099.8937" x2="1104.81" y1="108.1067" y2="116.8147"></line><line style="stroke:#181818;stroke-width:1.0;" x1="1099.8937" x2="1107.22" y1="108.1067" y2="111.32"></line><line style="stroke:#181818;stroke-width:1.0;" x1="1099.6688" x2="1096.4555" y1="103.6402" y2="110.9665"></line><text fill="#000000" font-family="sans-serif" font-size="13" lengthAdjust="spacing" textLength="65" x="550.5" y="51.0569">climber_id</text></g><!--link groups to group_members--><g id="link_groups_group_members"><path codeline="71" d="M1026.43,149.73 C1049.49,149.73 1075.47,149.73 1099.5,149.73 " fill="none" id="groups-group_members" style="stroke:#181818;stroke-width:1.0;"></path><line style="stroke:#181818;stroke-width:1.0;" x1="1022.44" x2="1022.44" y1="153.73" y2="145.73"></line><line style="stroke:#181818;stroke-width:1.0;" x1="1025.44" x2="1025.44" y1="153.73" y2="145.73"></line><line style="stroke:#181818;stroke-width:1.0;" x1="1026.44" x2="1018.44" y1="149.73" y2="149.73"></line><line style="stroke:#181818;stroke-width:1.0;" x1="1099.25" x2="1107.25" y1="149.73" y2="143.73"></line><line style="stroke:#181818;stroke-width:1.0;" x1="1099.25" x2="1107.25" y1="149.73" y2="155.73"></line><line style="stroke:#181818;stroke-width:1.0;" x1="1099.25" x2="1107.25" y1="149.73" y2="149.73"></line><line style="stroke:#181818;stroke-width:1.0;" x1="1097.25" x2="1097.25" y1="145.73" y2="153.73"></line><text fill="#000000" font-family="sans-serif" font-size="13" lengthAdjust="spacing" textLength="55" x="1035.25" y="142.7969">group_id</text></g><!--link climbs to gear_rental--><g id="link_climbs_gear_rental"><path codeline="72" d="M375.57,95.03 C393.49,79.03 415.01,63.6 438,55.19 C460.54,46.95 468,54.82 492,55.19 C922.38,61.81 1036.88,6 1460,84.99 C1493,91.15 1528.04,102.25 1558.59,113.53 " fill="none" id="climbs-gear_rental" style="stroke:#181818;stroke-width:1.0;"></path><line style="stroke:#181818;stroke-width:1.0;" x1="375.7916" x2="370.3826" y1="100.1726" y2="94.2784"></line><line style="stroke:#181818;stroke-width:1.0;" x1="378.002" x2="372.593" y1="98.1442" y2="92.25"></line><line style="stroke:#181818;stroke-width:1.0;" x1="376.0343" x2="370.14" y1="94.521" y2="99.93"></line><line style="stroke:#181818;stroke-width:1.0;" x1="1558.167" x2="1567.762" y1="113.7573" y2="110.9403"></line><line style="stroke:#181818;stroke-width:1.0;" x1="1558.167" x2="1563.558" y1="113.7573" y2="122.1797"></line><line style="stroke:#181818;stroke-width:1.0;" x1="1558.167" x2="1565.66" y1="113.7573" y2="116.56"></line><line style="stroke:#181818;stroke-width:1.0;" x1="1557.6951" x2="1554.8924" y1="109.3101" y2="116.8031"></line><text fill="#000000" font-family="sans-serif" font-size="13" lengthAdjust="spacing" textLength="52" x="439" y="51.0569">climb_id</text></g><!--link equipment to gear_rental--><g id="link_equipment_gear_rental"><path codeline="73" d="M1452.11,149.73 C1485.71,149.73 1524.26,149.73 1557.95,149.73 " fill="none" id="equipment-gear_rental" style="stroke:#181818;stroke-width:1.0;"></path><line style="stroke:#181818;stroke-width:1.0;" x1="1448.42" x2="1448.42" y1="153.73" y2="145.73"></line><line style="stroke:#181818;stroke-width:1.0;" x1="1451.42" x2="1451.42" y1="153.73" y2="145.73"></line><line style="stroke:#181818;stroke-width:1.0;" x1="1452.42" x2="1444.42" y1="149.73" y2="149.73"></line><line style="stroke:#181818;stroke-width:1.0;" x1="1557.86" x2="1565.86" y1="149.73" y2="143.73"></line><line style="stroke:#181818;stroke-width:1.0;" x1="1557.86" x2="1565.86" y1="149.73" y2="155.73"></line><line style="stroke:#181818;stroke-width:1.0;" x1="1557.86" x2="1565.86" y1="149.73" y2="149.73"></line><line style="stroke:#181818;stroke-width:1.0;" x1="1555.86" x2="1555.86" y1="145.73" y2="153.73"></line><text fill="#000000" font-family="sans-serif" font-size="13" lengthAdjust="spacing" textLength="87" x="1461.5" y="142.7969">equipment_id</text></g><!--link climbs to climb_difficulty--><g id="link_climbs_climb_difficulty"><path codeline="74" d="M385.15,95.79 C391.56,91.65 398.22,87.94 405,84.99 C516.06,36.52 554.84,53.72 676,55.19 C949.17,58.5 1637.74,28.35 1905,84.99 C1932.18,90.74 1960.61,101.11 1985.64,111.88 " fill="none" id="climbs-climb_difficulty" style="stroke:#181818;stroke-width:1.0;"></path><line style="stroke:#181818;stroke-width:1.0;" x1="384.3172" x2="379.8172" y1="101.8872" y2="95.2728"></line><line style="stroke:#181818;stroke-width:1.0;" x1="386.7976" x2="382.2975" y1="100.1996" y2="93.5853"></line><line style="stroke:#181818;stroke-width:1.0;" x1="385.3743" x2="378.76" y1="96.33" y2="100.83"></line><line style="stroke:#181818;stroke-width:1.0;" x1="1985.3137" x2="1995.05" y1="112.1767" y2="109.8953"></line><line style="stroke:#181818;stroke-width:1.0;" x1="1985.3137" x2="1990.23" y1="112.1767" y2="120.8847"></line><line style="stroke:#181818;stroke-width:1.0;" x1="1985.3137" x2="1992.64" y1="112.1767" y2="115.39"></line><line style="stroke:#181818;stroke-width:1.0;" x1="1985.0888" x2="1981.8755" y1="107.7102" y2="115.0365"></line><text fill="#000000" font-family="sans-serif" font-size="13" lengthAdjust="spacing" textLength="52" x="623" y="51.0569">climb_id</text></g><!--link difficulty_level to climb_difficulty--><g id="link_difficulty_level_climb_difficulty"><path codeline="75" d="M1896.88,149.73 C1924.87,149.73 1956.68,149.73 1984.79,149.73 " fill="none" id="difficulty_level-climb_difficulty" style="stroke:#181818;stroke-width:1.0;"></path><line style="stroke:#181818;stroke-width:1.0;" x1="1893.26" x2="1893.26" y1="153.73" y2="145.73"></line><line style="stroke:#181818;stroke-width:1.0;" x1="1896.26" x2="1896.26" y1="153.73" y2="145.73"></line><line style="stroke:#181818;stroke-width:1.0;" x1="1897.26" x2="1889.26" y1="149.73" y2="149.73"></line><line style="stroke:#181818;stroke-width:1.0;" x1="1984.78" x2="1992.78" y1="149.73" y2="143.73"></line><line style="stroke:#181818;stroke-width:1.0;" x1="1984.78" x2="1992.78" y1="149.73" y2="155.73"></line><line style="stroke:#181818;stroke-width:1.0;" x1="1984.78" x2="1992.78" y1="149.73" y2="149.73"></line><line style="stroke:#181818;stroke-width:1.0;" x1="1982.78" x2="1982.78" y1="145.73" y2="153.73"></line><text fill="#000000" font-family="sans-serif" font-size="13" lengthAdjust="spacing" textLength="70" x="1906" y="142.7969">difficulty_id</text></g><!--SRC=[XLFBReCm4Bpp5HRNYX_ejQz36wdgjQei5syIIxngJ2KK-kyrjc7N9hINm4oMcO4TGsEK6Lb-Q8V62DNqEHCzgnV4BXbZDolcIhBtr-SFInQ5_LdvHjH0yHdKwMmiKywC7ksTq22odoo3u7XNgVeJj3Si0mX-0QPs2ntSX9GQ-duZIYGZmQjol3T26ow5WPM2HdfY6vUxAytCtTNvH25diqTdXkOp9ffFkXqwd_RaRaDQ1zAqddIldahm0-2dz7CruFSaZoUXI4oY-V0rgAwsoEd1WaAu5QS1yOzDI12QlraaAXznnjhXvOsHkRub31xx9z7lrV6eog4o8t-1R_1s4ibg9eCdeHDB2NsfLMTKssmgmD42My1HAoa22PxuXUHurAQfqAgOBajpRrbEpbsUhMSa7bmRQETngM7yt-4TvRX4YNBewlxmqhLj2BhvA0AsR6-MxdtdxUWQ8lLD0_vyBbfK_Wi0]--></g></svg>